<svg xmlns="http://www.w3.org/2000/svg" viewBox="0 0 1000 386" class="worldmap-svg" role="img" aria-label="World map" preserveAspectRatio="xMidYMid meet"><path class="land" d="M311.8 380.1 L315.4 381.8 L319.3 382.5 L318.1 383.9 L315.4 384 L314 383 L313.1 384.2 L310.7 385 L307.7 384.7 L305.7 383.9 L302.8 383.5 L299.3 381.9 L296.4 380.4 L292.6 377.3 L294.9 377.9 L298.8 379.8 L302.5 380.8 L303.9 379.5 L304.8 377.6 L307.4 376.4 L309.3 376.8 L309.3 376.8 L310.4 378.1 L311.8 380.1 ZM337.4 372.5 L339.6 373.8 L338.8 374.7 L335 375.6 L333.8 374.6 L331.4 375.8 L330 374.6 L333.3 372.9 L335.7 373.6 L337.4 372.5 ZM695.2 368.6 L691 368.8 L690.9 367.3 L691.3 366.2 L691.5 365.6 L693.3 366.5 L695.9 366.8 L696 367.4 L695.2 368.6 ZM903.9 343.9 L906.6 344.8 L908.1 344.4 L910.2 343.9 L911.9 344.1 L912.1 347.4 L911.2 348.4 L910.9 350.6 L909.9 349.8 L908 351.8 L907.4 351.6 L905.7 351.5 L904 349.1 L903.6 347.3 L902 344.9 L902.1 343.6 L903.9 343.9 ZM980.6 344.2 L981.2 345.4 L983.2 344.2 L984 345.4 L984 346.6 L983 347.9 L981.2 349.9 L979.8 351 L980.8 352.4 L978.6 352.4 L976.3 353.5 L975.5 355.3 L973.9 358.1 L971.8 359.3 L970.4 360.1 L967.8 360.1 L966 359.1 L963 358.9 L962.5 357.9 L964 355.9 L967.5 353.1 L969.3 352.6 L971.3 351.5 L973.7 350.1 L975.3 348.6 L976.6 346.6 L977.6 345.9 L978 344.3 L980 343 L980.6 344.2 ZM985 331 L987 333.9 L987.1 332 L988.4 332.8 L988.8 334.9 L991 335.8 L992.9 336 L994.5 334.9 L995.9 335.3 L995.2 337.7 L994.4 339.4 L992.2 339.3 L991.5 340.1 L991.8 341.3 L991.3 341.8 L990.3 343.3 L988.9 345.2 L986.8 346.4 L986.3 345.6 L985.1 345.2 L986.7 342.9 L985.8 341.4 L982.8 340.3 L982.9 339.3 L984.9 338.3 L985.4 336.2 L985.3 334.4 L984.1 332.5 L984.2 332 L982.9 330.9 L980.7 328.4 L979.5 326.5 L980.6 326.3 L982.1 327.8 L984.2 328.5 L985 331 ZM964.2 292.1 L963.2 292.8 L961.6 292 L959.7 290.8 L957.9 289.3 L956 287.3 L955.6 286.4 L956.8 286.4 L958.4 287.4 L959.6 288.3 L960.5 289.1 L962.8 290.8 L964.2 292.1 ZM995.5 278.7 L996.4 279.5 L996 281 L994.3 281.4 L992.7 281 L992.5 279.8 L993.5 278.8 L994.8 279.2 L995.5 278.7 ZM998.2 277.2 L996.5 277.8 L996.1 276.8 L997.5 276.2 L998.4 276.1 L1000 275.2 L1000 276.5 L998.2 277.2 ZM0.2 276.4 L0 276.5 L0 275.2 L0.6 275.1 L0.2 276.4 ZM966.2 276.3 L965.3 276.7 L964.4 275.4 L964.5 274.7 L966.2 276.3 ZM964.2 272 L964.6 274.3 L963.9 273.9 L963.3 274.1 L962.9 273.3 L962.9 271.2 L964.2 272 ZM639 268.2 L639.5 271.6 L640.2 272.9 L639.9 274.2 L639.4 275 L638.5 273.4 L638 274.2 L638.5 276.3 L638.3 277.4 L637.5 278.1 L637.3 280.4 L636.2 283.7 L634.9 287.5 L633.1 292.8 L632.1 296.6 L630.8 299.8 L628.6 300.5 L626.1 301.7 L624.5 301 L622.3 300 L621.6 298.5 L621.4 296 L620.4 293.8 L620.2 291.8 L620.6 289.8 L621.9 289.3 L621.9 288.4 L623.3 286.3 L623.5 284.5 L622.9 283.2 L622.3 281.5 L622.1 278.9 L623.1 277.4 L623.5 275.6 L624.8 275.5 L626.4 274.9 L627.4 274.4 L628.6 274.4 L630.2 272.8 L632.5 271.1 L633.3 269.7 L633 268.5 L634.1 268.8 L635.7 266.9 L635.7 265.2 L636.7 264 L637.6 265.2 L638.4 266.4 L639 268.2 ZM898.8 268.8 L899.8 271 L901.6 269.9 L902.5 271.1 L903.8 272.2 L903.5 273.4 L904.1 275.8 L904.5 277.2 L905.2 277.5 L906 279.9 L905.7 281.3 L906.6 283.2 L909.6 284.7 L911.6 286 L913.5 287.2 L913.1 287.9 L914.7 289.6 L915.8 292.6 L916.9 292 L918 293.2 L918.7 292.8 L919.2 295.7 L921.1 297.4 L922.4 298.5 L924.6 300.7 L925.4 303 L925.4 304.6 L925.3 306.3 L926.6 308.6 L926.4 311.1 L925.9 312.4 L925.2 314.9 L925.2 316.5 L924.7 318.4 L923.5 321 L921.4 322.3 L920.4 324.5 L919.5 325.9 L918.7 328.3 L917.6 329.6 L916.9 331.7 L916.5 333.6 L916.7 334.5 L915.1 335.5 L912 335.6 L909.4 336.7 L908.1 337.8 L906.4 339 L904.1 337.8 L902.4 337.3 L902.9 335.8 L901.3 336.3 L898.9 338.4 L896.5 337.6 L894.9 337.2 L893.4 337 L890.7 336.2 L888.9 334.5 L888.4 332.3 L887.7 330.9 L886.3 329.8 L883.7 329.5 L884.6 328.1 L883.9 326.1 L882.6 328 L880.1 328.5 L881.5 327 L882 325.4 L883 324 L882.8 321.9 L880.5 324.3 L878.8 325.3 L877.7 327.5 L875.6 326.3 L875.7 324.9 L873.9 322.8 L872.5 321.8 L873 321.2 L869.4 319.5 L867.5 319.4 L864.8 318 L859.8 318.3 L856.2 319.3 L853.1 320.2 L850.4 320 L847.5 321.5 L845.1 322.1 L844.5 323.6 L843.5 324.7 L841.1 324.8 L839.4 325 L836.9 324.5 L834.9 324.8 L833 324.9 L831.4 326.4 L830.6 326.3 L829.2 327.1 L827.8 328 L825.8 327.8 L824 327.8 L821 326.1 L819.5 325.5 L819.6 324 L821 323.6 L821.4 322.9 L821.3 321.9 L821.7 320 L821.4 318.4 L819.9 315.6 L819.4 314 L819.6 312.4 L818.4 310.6 L818.4 309.8 L817.1 308.7 L816.8 306.5 L815.2 304.3 L814.8 303.1 L816.1 304.3 L815.1 301.7 L816.5 302.5 L817.3 303.6 L817.3 302.2 L815.9 300 L815.6 299.1 L815 298.3 L815.3 296.7 L815.9 296 L816.2 294.6 L815.9 293 L817.1 291 L817.3 293.1 L818.5 291.2 L820.7 290.3 L822.1 289.1 L824.2 288.1 L825.5 287.8 L826.2 288.2 L828.4 287.2 L830.1 286.8 L830.5 286.2 L831.3 286 L832.8 286 L835.7 285.2 L837.2 284 L837.9 282.5 L839.6 281.1 L839.7 280 L839.8 278.5 L841.7 276.1 L842.9 278.5 L844.1 278 L843.1 276.7 L843.9 275.3 L845.2 275.9 L845.5 273.8 L847 272.4 L847.7 271.3 L849.1 270.9 L849.1 270.1 L850.3 270.4 L850.4 269.7 L851.6 269.3 L853 268.9 L855 270.2 L856.6 271.9 L858.3 271.9 L860.1 272.1 L859.5 270.6 L860.8 268.4 L862.1 267.7 L861.6 267 L862.8 265.4 L864.5 264.4 L865.9 264.7 L868.3 264.2 L868.2 262.8 L866.2 261.9 L867.7 261.5 L869.5 262.2 L871 263.3 L873.3 264 L874.1 263.7 L875.8 264.6 L877.5 263.8 L878.5 264 L879.1 263.5 L880.4 264.9 L879.7 266.4 L878.6 267.5 L877.7 267.6 L878 268.7 L877.2 270.1 L876.2 271.4 L876.4 272.2 L878.6 273.8 L880.7 274.6 L882.2 275.6 L884.2 277.2 L885 277.2 L886.4 278 L886.8 278.8 L889.5 279.8 L891.3 278.8 L891.9 277.3 L892.4 276.1 L892.8 274.6 L893.6 272.3 L893.2 271 L893.4 270.2 L893.1 268.6 L893.5 266.5 L894 265.9 L893.6 265 L894.2 263.5 L894.8 262 L894.8 261.2 L895.9 260.2 L896.7 261.5 L896.9 263.3 L897.5 263.6 L897.7 264.8 L898.7 266.2 L898.9 267.8 L898.8 268.8 ZM950.3 259.7 L951.1 260.6 L949.2 260.6 L948.1 258.9 L949.8 259.6 L950.3 259.7 ZM835.3 259 L834.2 259.1 L830.5 257.1 L833.1 256.6 L834.5 257.4 L835.5 258.2 L835.3 259 ZM946.8 258 L945.7 258 L944 257.8 L943.4 257.3 L943.6 256.2 L945.5 256.7 L946.4 257.3 L946.8 258 ZM949.1 257.2 L948.7 257.7 L946.6 255.3 L946.1 253.7 L947 253.7 L948 255.9 L949.1 257.2 ZM845.7 258.7 L843.3 259.3 L842.9 259 L843.2 258.1 L844.4 256.4 L847.1 255.3 L847.5 254.6 L849.9 254 L851.8 253.9 L852.7 253.5 L853.7 253.9 L852.7 254.6 L849.8 255.9 L847.5 256.6 L845.7 258.7 ZM827.5 253 L828.5 253.8 L830.2 253.6 L830.9 254.7 L827.7 255.3 L825.8 255.7 L824.3 255.6 L825.2 254 L826.8 254 L827.5 253 ZM841.4 253 L841 254.6 L836.8 255.4 L833.1 255 L833.1 254 L835.3 253.4 L837.1 254.3 L838.9 254.1 L841.4 253 ZM944.1 253.7 L944.2 254.3 L942 253.1 L940.5 252.1 L939.5 251.2 L939.9 250.9 L941.2 251.6 L943.4 252.8 L944.1 253.7 ZM937.6 251 L937.1 251.1 L935.8 250.5 L934.7 249.3 L934.8 248.9 L936.5 250.1 L937.6 251 ZM801.7 249.4 L807.1 249.7 L807.7 248.5 L812.8 249.9 L813.8 251.7 L818 252.2 L821.4 253.8 L818.2 254.9 L815.2 253.7 L812.7 253.8 L809.8 253.6 L807.2 253.1 L804 252.1 L801.9 251.8 L800.8 252.1 L795.7 251 L795.2 249.8 L792.7 249.6 L794.6 246.9 L798 247.1 L800.2 248.2 L801.4 248.4 L801.7 249.4 ZM874.2 247.8 L872.8 249.7 L872.5 247.6 L873 246.6 L873.6 245.7 L874.2 246.5 L874.2 247.8 ZM933 249.5 L932.2 249.8 L931 248.7 L929.8 246.9 L929.2 244.8 L929.6 244.6 L929.9 245.4 L930.7 246 L932.1 247.8 L933.4 248.7 L933 249.5 ZM922.2 245.8 L920.7 246 L920.3 246.8 L918.8 247.5 L917.3 248.1 L915.9 248.1 L913.6 247.3 L912 246.5 L912.2 245.7 L914.7 246.1 L916.2 245.8 L916.7 244.5 L917.1 244.4 L917.3 245.9 L918.9 245.7 L919.7 244.8 L921.2 243.8 L920.9 242.1 L922.6 242.1 L923.2 242.5 L923.1 244.1 L922.2 245.8 ZM853.5 240.2 L852.4 241.1 L850.5 240.6 L850 239.4 L852.8 239.2 L853.5 240.2 ZM862.4 239.1 L863.4 241.3 L861.1 240.1 L858.8 239.9 L857.2 240.1 L855.3 240 L855.9 238.5 L859.4 238.3 L862.4 239.1 ZM925.4 243.1 L924.5 243.8 L924 242.2 L923.4 241.1 L922.1 240.2 L920.5 239 L918.5 238.2 L919.3 237.5 L920.8 238.3 L921.7 238.9 L922.9 239.6 L924 240.7 L925.1 241.6 L925.4 243.1 ZM872.6 233.8 L873.4 238.2 L876.3 239.9 L878.6 237 L881.8 235.3 L884.2 235.3 L886.6 236.3 L888.7 237.2 L891.7 237.8 L896.5 239.7 L901.6 241.3 L903.5 242.7 L905.1 244.1 L905.5 245.7 L910.1 247.5 L910.8 248.9 L908.3 249.2 L908.9 251.1 L911.3 252.9 L913.2 255.8 L914.7 255.8 L914.6 257 L916.8 257.5 L915.9 258 L918.9 259.1 L918.6 260 L916.7 260.1 L916.1 259.4 L913.7 259.1 L910.9 258.7 L908.7 256.9 L907.1 255.4 L905.7 253 L902.1 251.8 L899.7 252.5 L898 253.5 L898.4 255.5 L896.2 256.5 L894.6 256 L891.8 255.9 L889.3 253.6 L886.5 253 L885.8 253.8 L882.3 253.9 L883.4 251.7 L885.2 250.9 L884.5 247.9 L883.1 245.5 L877.7 243.2 L875.5 243 L871.3 240.4 L870.5 241.7 L869.4 242 L868.8 241 L868.8 239.8 L866.6 238.4 L869.6 237.4 L871.6 237.4 L871.4 236.7 L867.3 236.7 L866.2 235 L863.7 234.5 L862.6 233.2 L866.3 232.5 L867.7 231.6 L872.2 232.7 L872.6 233.8 ZM847.9 226.6 L845.7 229.4 L843.6 229.9 L840.9 229.4 L836.3 229.5 L833.8 229.9 L833.4 232 L835.9 234.5 L837.4 233.2 L842.6 232.3 L842.4 233.5 L841.2 233.1 L840 234.8 L837.5 235.8 L840.2 239.4 L839.6 240.4 L842.1 243.6 L842.1 245.4 L840.6 246.2 L839.5 245.2 L840.9 243 L838.2 244 L837.5 243.3 L837.8 242.2 L835.8 240.6 L836 237.9 L834.2 238.7 L834.4 241.9 L834.5 245.9 L832.8 246.3 L831.6 245.5 L832.4 242.9 L831.9 240.3 L830.8 240.2 L829.9 238.3 L831.1 236.5 L831.5 234.3 L832.8 230.1 L833.4 229 L835.8 226.9 L838 227.7 L841.5 228.1 L844.7 228 L847.4 226 L847.9 226.6 ZM857.5 227.4 L857.3 229.8 L855.9 229.6 L855.5 231.3 L856.6 232.7 L855.8 233.1 L854.7 231.3 L853.9 227.7 L854.4 225.5 L855.4 224.5 L855.6 226 L857.2 226.3 L857.5 227.4 ZM793.9 246.8 L790.9 246.9 L788.5 244.5 L785 242.3 L783.8 240.6 L781.7 238.3 L780.3 236.3 L778.2 232.4 L775.7 230 L774.9 227.7 L773.9 225.5 L771.4 223.7 L769.9 221.4 L767.8 219.8 L764.9 216.7 L764.7 215.3 L766.5 215.4 L770.8 216 L773.2 218.7 L775.4 220.6 L776.9 221.7 L779.6 224.7 L782.4 224.8 L784.7 226.7 L786.3 229 L788.4 230.3 L787.3 232.5 L788.9 233.5 L789.9 233.6 L790.4 235.5 L791.4 237.1 L793.4 237.3 L794.7 239.1 L794 242.5 L793.9 246.8 ZM827.4 225.5 L830.5 228 L827.3 228.4 L826.3 230.3 L826.4 232.8 L823.8 234.7 L823.7 237.5 L822.6 241.7 L822.2 240.7 L819.1 242 L818 240.3 L816 240.1 L814.6 239.2 L811.3 240.2 L810.3 238.9 L808.5 239 L806.2 238.7 L805.8 235 L804.4 234.2 L803 231.8 L802.6 229.4 L803 226.8 L804.6 225 L806.7 225.9 L808.8 225.4 L809.4 223.1 L810.5 222.5 L813.9 221.9 L815.9 219.7 L817.2 218 L818.3 216.9 L820.7 215.4 L822.8 213.5 L824.2 211.3 L825.4 211.3 L826.8 212.7 L826.9 213.9 L828.7 214.7 L831.1 215.5 L830.9 216.6 L829 216.8 L829.5 218.1 L827.5 219.1 L825.9 221.6 L827.9 224.2 L827.4 225.5 ZM851 207.2 L851.3 209 L851.5 210.6 L850.5 213.1 L849.5 210.3 L848.2 211.7 L849.1 213.8 L848.3 215.1 L845.1 213.4 L844.3 211.4 L845.1 210.1 L843.4 208.8 L842.5 209.9 L841.2 209.8 L839.1 211.4 L838.7 210.6 L839.8 208.2 L841.5 207.5 L843 206.4 L844 207.7 L846.1 206.9 L846.6 205.7 L848.5 205.6 L848.4 203.4 L850.6 204.8 L850.9 206.2 L851 207.2 ZM725.6 213.3 L723.2 214 L721.9 211.8 L721.4 207.8 L722.6 203.3 L724.6 204.8 L725.8 206.8 L727.2 209.7 L726.8 212.6 L725.6 213.3 ZM330.7 202.5 L328.4 202.8 L327.9 202.5 L328.7 201.8 L328.7 200.7 L330.3 200.3 L330.8 200.4 L330.7 202.5 ZM844.4 202 L843.4 202.9 L842.5 204.7 L841.7 205.5 L839.9 203.6 L840.5 202.8 L841.2 202.1 L841.5 200.3 L843.1 200.2 L842.6 202 L844.7 199.4 L844.4 202 ZM829.2 204.7 L825.5 207.3 L826.8 205.4 L828.9 203.7 L830.5 201.7 L832 199 L832.5 201.2 L830.6 202.8 L829.2 204.7 ZM838.6 197.5 L840.2 198.4 L842 198.4 L841.9 199.5 L840.7 200.7 L838.9 201.6 L838.8 200.3 L839 198.8 L838.6 197.5 ZM848.6 196.8 L849.4 199.9 L847.3 199.1 L847.3 200.1 L848 201.8 L846.7 202.4 L846.6 200.5 L845.7 200.3 L845.3 198.6 L846.9 198.8 L846.9 197.8 L845.2 195.7 L847.9 195.7 L848.6 196.8 ZM837.6 194.3 L836.8 196.7 L835.6 195.3 L834.2 193.1 L836.6 193.3 L837.6 194.3 ZM837 179.2 L838.7 179.9 L839.6 179.2 L839.8 179.9 L839.4 181.1 L840.3 183.1 L839.6 185.4 L838 186.3 L837.5 188.5 L838.1 190.8 L839.6 191.1 L840.8 190.7 L844.3 192.3 L844 193.8 L844.9 194.5 L844.7 195.7 L842.5 194.4 L841.5 192.9 L840.8 193.9 L839 192.3 L836.5 192.7 L835.1 192.1 L835.2 190.9 L836.1 190.2 L835.3 189.6 L834.9 190.6 L833.5 189 L833.1 187.8 L833 185.1 L834.1 186 L834.4 181.7 L835.3 179.2 L837 179.2 ZM317.8 179.9 L317.1 180.6 L315 180.6 L313.4 180.7 L313.2 179.5 L313.6 179.1 L315.9 179.1 L317.3 179.4 L317.8 179.9 ZM286.4 180.9 L285.5 181.4 L284 180.9 L282.4 179.9 L282.7 179.3 L283.9 179.1 L284.5 179.2 L286.4 179.4 L287.9 180.1 L288.3 180.9 L286.4 180.9 ZM298.4 175.4 L300.8 175.8 L301.1 175.3 L303.3 175.3 L305 176 L305.7 176 L306.2 177 L307.7 176.9 L307.6 177.7 L308.9 177.8 L310.2 178.9 L309.2 180 L307.9 179.4 L306.6 179.5 L305.7 179.4 L305.2 179.9 L304.1 180 L303.7 179.4 L302.8 179.8 L301.7 181.7 L301 181.2 L300.8 180.4 L299 180 L297.7 180.2 L296 180 L294.7 180.5 L293.2 179.6 L293.4 178.7 L296 179.1 L298.1 179.3 L299.1 178.7 L297.8 177.5 L297.8 176.4 L296.1 176 L296.7 175.2 L298.4 175.4 ZM806.5 178.7 L804.1 180 L801.8 179.1 L801.7 176.8 L803.1 175.5 L806.1 174.7 L807.7 174.8 L808.4 175.8 L807.1 177.1 L806.5 178.7 ZM67.9 177.5 L67.5 178 L66.8 177.6 L66.9 176.8 L66.5 175.8 L66.6 175.5 L67.1 175.1 L66.9 174.5 L67.1 174.3 L67.3 174.3 L68.3 174.8 L68.8 175 L69.3 175.4 L70 176.4 L69.9 176.5 L68.8 177.1 L67.9 177.5 ZM66.4 173.2 L65.5 173.4 L65 172.8 L64.7 172.6 L64.7 172.4 L65 172.2 L66 172.5 L66.7 172.9 L66.4 173.2 ZM64.6 171.7 L64.5 172 L63 172 L63.2 171.6 L64.6 171.7 ZM62.1 171.3 L61.9 171.5 L61.7 171.5 L60.8 171.4 L60.4 170.7 L60.3 170.6 L61 170.2 L61.3 170.4 L62.1 171.3 ZM57.4 169.5 L57 169.8 L56.1 169.3 L56.3 169.1 L56.7 168.8 L57.3 168.8 L57.4 169.5 ZM278.7 167.3 L279.8 168.3 L282.4 168 L283.4 168.7 L285.7 170.4 L287.4 171.6 L288.3 171.6 L290 172.2 L289.8 173 L291.9 173.1 L293.9 174.2 L293.6 174.9 L291.8 175.2 L289.9 175.4 L288 175.1 L284 175.4 L285.9 173.9 L284.7 173.1 L283 172.9 L282 172.1 L281.3 170.6 L279.8 170.7 L277.2 169.9 L276.3 169.3 L272.7 168.9 L271.8 168.4 L272.8 167.7 L270.1 167.5 L268.1 169 L266.9 169 L266.5 169.7 L265.1 170 L264 169.7 L265.4 168.9 L266 167.9 L267.3 167.3 L268.7 166.7 L270.8 166.4 L271.5 166.1 L273.9 166.3 L276.1 166.4 L278.7 167.3 ZM284.6 164.6 L283.9 164.7 L283.2 163.1 L282.2 162.3 L282.8 160.5 L283.6 160.6 L284.6 162.9 L284.6 164.6 ZM836.6 167.2 L835.4 169.5 L833.9 167.2 L833.6 165.1 L835.3 162.4 L837.5 160.3 L838.8 161.1 L838.3 162.8 L836.6 167.2 ZM283.8 156.7 L280.8 157.2 L280.6 156.1 L281.9 155.9 L283.8 156 L283.8 156.7 ZM286.1 156.7 L285.6 158.7 L285.1 158.3 L285.2 156.9 L283.9 155.8 L283.9 155.4 L286.1 156.7 ZM874 135.7 L874.4 136.6 L872.8 138.3 L871.6 137.4 L870.2 138.1 L869.5 139.7 L867.7 138.9 L867.7 137.6 L869.2 135.9 L870.8 136.3 L872 135.1 L874 135.7 ZM596 131.5 L594.2 132.7 L594.4 133.2 L594.5 133.4 L591.6 134.5 L590.3 134.2 L589.6 133 L590.9 132.9 L591.1 132.9 L591.5 132.3 L593.5 132.3 L596 131.5 ZM565.8 131.4 L567.4 132.3 L569.5 132.2 L571.6 132.3 L571.5 132.8 L573 132.5 L572.7 133.3 L568.7 133.6 L568.7 133.1 L565.3 132.6 L565.8 131.4 ZM543.1 124.4 L542.1 126.5 L542.5 127.4 L541.9 128.8 L539.8 127.8 L538.4 127.5 L534.5 126.1 L534.9 124.6 L538.2 124.9 L541 124.6 L543.1 124.4 ZM525.6 116.1 L527.2 118.1 L526.9 121.7 L525.6 121.6 L524.5 122.5 L523.4 121.7 L523.3 118.4 L522.7 116.8 L524.2 116.9 L525.6 116.1 ZM891.6 127.4 L890.6 129.6 L891 131 L889.6 132.9 L886 134.3 L881.2 134.4 L877.2 137.6 L875.3 136.5 L875.2 134.5 L870.4 135.1 L867.1 136.4 L863.9 136.4 L866.7 138.5 L864.8 143.2 L863 144.4 L861.7 143.3 L862.4 140.8 L860.6 140 L859.5 138.1 L862.1 137.2 L863.6 135.5 L866.3 134 L868.4 132.1 L873.9 131.3 L876.9 131.9 L879.8 126.9 L881.6 128.3 L885.7 125.5 L887.3 124.4 L889 121 L888.6 117.9 L889.7 116.1 L892.7 115.6 L894.2 119.5 L894.1 121.7 L891.6 124.5 L891.6 127.4 ZM526.6 113.5 L525.6 115.6 L524.4 115 L523.7 113.2 L524.3 112.1 L526.1 111.1 L526.6 113.5 ZM899.8 107.8 L901.7 108.4 L903.7 107.3 L904.3 110.4 L900.2 111.1 L897.7 113.9 L893.4 112 L891.9 115 L888.8 115.1 L888.4 112.3 L889.8 110.2 L892.7 110 L893.5 106.2 L894.4 104 L897.6 106.9 L899.8 107.8 ZM323.2 101.2 L325.2 101.6 L327.7 101.5 L326.4 102.7 L325.3 102.9 L321.8 101.7 L321.1 100.8 L322.2 99.9 L323.2 101.2 ZM328.3 94.2 L327 94.2 L323.4 93.3 L320.8 92 L321.7 91.8 L325.4 92.5 L328.2 93.6 L328.3 94.2 ZM156.9 95.8 L155.5 96.2 L151 94.9 L150.1 93.9 L147.6 93 L147.1 92.2 L144.3 91.7 L143.2 90.2 L143.4 89.5 L146.4 90.1 L148.1 90.6 L150.7 90.8 L151.6 91.8 L153 93.1 L155.8 94.3 L156.9 95.8 ZM344.1 89.8 L342.2 92.2 L344 91.2 L345.9 91.8 L344.9 92.8 L347.4 93.6 L348.7 92.9 L351.5 93.8 L350.6 95.8 L352.5 95.3 L352.9 96.8 L353.8 98.5 L352.6 101 L351.3 101.1 L349.5 100.5 L350.1 98.3 L349.3 97.9 L346.1 100.3 L344.5 100.2 L346.4 98.9 L343.7 98.2 L340.8 98.4 L335.4 98.3 L334.9 97.5 L336.7 96.5 L335.5 95.8 L337.8 94.1 L340.7 89.7 L342.4 88.1 L344.8 87.1 L346.1 87.3 L345.6 88 L344.1 89.8 ZM131.4 80.4 L131.4 80.4 L131.4 80.4 L131.4 80.4 L134 80.2 L133.2 83.4 L135.6 85.6 L134.5 85.6 L132.8 84.3 L131.8 83.1 L130.4 82.2 L129.9 81 L130.1 80.1 L131.4 80.4 ZM899 89.6 L901.8 94.5 L897.7 93.6 L896 97.6 L898.7 100.5 L898.6 102.4 L896.5 100.7 L894.7 102.9 L894.2 100.5 L894.5 97.8 L894.2 94.8 L894.8 92.7 L894.9 89 L893.3 86.3 L893.6 82.5 L896.1 81.2 L895 79.9 L896.3 79.5 L897 81.4 L897.9 84.1 L897.9 86.8 L899 89.6 ZM481.1 85.4 L476.2 87 L472.3 86.6 L474.5 83.7 L473.1 80.9 L476.9 78.7 L479 77.4 L481.3 77.3 L484.3 79 L482.8 80.9 L483.2 82.9 L481.1 85.4 ZM535.3 76.1 L533.6 78.3 L530.7 76.8 L530.3 75.6 L534.4 74.7 L535.3 76.1 ZM75 71.9 L72.2 73 L70.8 72.2 L70.4 70.9 L72.9 70 L74.4 69.5 L76.2 69.7 L77.4 70.6 L75 71.9 ZM491.7 67.7 L488.7 70.7 L491.5 70.3 L494.6 70.3 L493.8 72.6 L491.3 75.1 L494.2 75.3 L496.9 78.8 L498.8 79.3 L500.5 82.4 L501.3 83.5 L504.7 84.1 L504.3 85.8 L502.9 86.6 L504 88.1 L501.5 89.5 L497.8 89.5 L493.1 90.3 L491.8 89.7 L490 91 L487.4 90.7 L485.4 91.8 L484 91.2 L488 88.3 L490.5 87.7 L486.2 87.2 L485.4 86.1 L488.3 85.3 L486.7 83.8 L487.3 82 L491.4 82.2 L491.8 80.6 L489.9 78.8 L486.5 78.4 L485.9 77.6 L486.9 76.4 L486 75.6 L484.5 76.9 L484.3 74.2 L482.9 72.8 L483.9 69.9 L486.1 67.7 L488.3 67.9 L491.7 67.7 ZM40.1 64.1 L38.4 64.6 L36.5 64.1 L34.8 63.3 L37.6 62.8 L39.8 63.1 L40.1 64.1 ZM279.8 57.9 L278.7 59.4 L277.5 59.1 L276.8 58.3 L276.9 58.1 L278 57.3 L279.1 57.3 L279.8 57.9 ZM272.5 56.4 L269.3 57.9 L267.3 57.8 L266.7 57.1 L268.7 55.8 L272.6 55.8 L272.5 56.4 ZM23 53.4 L24.7 53.9 L26.4 53.6 L28.7 54.4 L31.4 54.7 L31.2 55 L29.1 55.6 L27 55 L25.9 54.5 L23.5 54.7 L22.8 54.4 L23 53.4 ZM263.4 48.2 L264 49.4 L265.4 49 L267 49.7 L270 50.6 L273.2 51.5 L273.5 52.8 L275.5 52.6 L277.5 53.5 L275 54.4 L270.7 53.7 L269.1 52.5 L266.4 54 L262.4 55.4 L261.5 53.8 L257.7 54.1 L260.1 52.7 L260.5 50.5 L261.4 47.9 L263.4 48.2 ZM459.7 46 L459.1 47.8 L462.2 49.6 L458.6 51.8 L450.6 53.7 L448.2 54.2 L444.5 53.8 L436.8 52.9 L439.5 51.7 L433.5 50.3 L438.4 49.8 L438.3 48.9 L432.4 48.3 L434.3 46.5 L438.5 46.1 L442.8 48 L447.1 46.5 L450.6 47.2 L455.1 45.8 L459.7 46 ZM289.3 44 L286.1 44.2 L285.5 42.8 L286.6 41.3 L289.2 40.9 L291.3 41.6 L291.4 42.8 L291.1 43.2 L289.3 44 ZM13.8 45.6 L15.7 46.3 L15.1 44.3 L22.6 44.7 L28.1 47.3 L25.3 48.5 L20.7 48.8 L20.7 51.5 L19.6 52.1 L17 52 L14.9 51 L11.2 50.2 L10.5 49 L7.7 48.6 L4.6 48.9 L3 47.9 L3.6 46.9 L0.3 47.6 L1.6 48.9 L0 50.1 L0 39 L6.8 41.1 L14.1 43.9 L13.8 45.6 ZM234.3 38.6 L232.6 39.6 L228.8 38.7 L226.6 39 L222.8 37.8 L225.2 36.9 L227.2 35.7 L230.1 36.5 L231.8 37 L232.6 37.5 L234.3 38.6 ZM1000 33.8 L997 33.9 L996.5 33.1 L1000 31.9 L1000 33.8 ZM3.6 33.6 L0 33.8 L0 31.9 L0.4 31.8 L2.7 31.8 L6.7 32.6 L6.5 33 L3.6 33.6 ZM248.5 37.5 L248.5 40.3 L252.2 38.2 L255.5 40 L254.7 42 L257.4 43.9 L260.3 41.9 L262.3 39.5 L262.4 36.4 L266.4 36.7 L270.5 37.1 L274.2 38.4 L274.4 39.8 L272.3 41.3 L274.3 42.8 L273.9 44.1 L268.5 46.1 L264.6 46.5 L261.8 45.7 L260.9 47.1 L258.2 49.4 L257.4 50.6 L254.2 52.5 L250.2 52.7 L248 53.9 L247.9 55.7 L244.6 56 L241.2 58.3 L238.2 61.4 L237.1 63.6 L237 66.8 L241.1 67.3 L242.3 69.9 L243.6 72 L247.5 71.4 L252.7 72.6 L255.4 73.7 L257.4 75 L260.9 75.8 L263.9 76.9 L268.4 77.1 L271.5 77.4 L271 79.8 L271.9 82.6 L273.9 85.7 L278 88.3 L280.2 87.4 L281.7 84.5 L280.2 80.2 L278.3 78.7 L282.7 77.4 L285.8 75.5 L287.4 73.5 L287.2 71.7 L285.3 69.3 L281.9 67.2 L285.2 64.3 L284 61.8 L283 57.4 L285 56.8 L289.7 57.6 L292.6 57.8 L294.9 57.1 L297.5 58 L300.9 59.7 L301.7 60.7 L306.7 60.9 L306.6 63.3 L307.5 66.8 L310.1 67.2 L312.1 68.9 L316.1 67.3 L318.8 64.2 L320.6 63 L322.8 65.4 L326.4 69 L329.5 72.3 L328.3 74.1 L332 75.6 L334.5 77.2 L339 77.9 L340.7 78.8 L341.8 81.2 L344 81.5 L345.1 82.6 L345.3 85.7 L343.3 86.7 L341.3 87.7 L336.7 88.7 L333.2 91 L328.5 91.4 L322.6 90.9 L318.4 90.8 L315.6 91 L313.2 93 L309.7 94.3 L305.7 97.9 L302.5 100.5 L304.8 100 L309.3 96.4 L315.1 94.1 L319.3 93.8 L321.7 95.2 L319.1 97 L320 100 L320.9 102.1 L324.5 103.5 L329.1 103.1 L331.9 100 L332.1 102 L333.9 103 L330.4 104.8 L324.3 106.5 L321.5 107.6 L318.4 109.6 L316.3 109.4 L316.2 107 L321 104.7 L316.6 104.8 L313.5 105.2 L314 106.1 L311 107.4 L308.2 108.4 L305.2 109.2 L303.6 111 L303.3 111.5 L303.3 113 L304.2 114.4 L305.3 114.5 L305 113.5 L305.9 114.1 L305.7 114.9 L303.8 115.3 L302.4 115.3 L300.4 115.8 L299.2 115.9 L297.6 116.1 L295.2 116.9 L299.3 116.3 L300.2 116.9 L296.3 117.7 L294.5 117.7 L294.6 117.4 L293.7 118.1 L294.5 118.3 L293.9 120.3 L291.9 122.4 L291.7 121.7 L291.1 121.5 L290.2 120.8 L290.8 122.3 L291.4 122.8 L291.5 123.9 L290.6 125 L289.1 127.2 L288.8 127.1 L289.7 125.2 L288.2 124.1 L287.9 121.8 L287.4 123 L288 124.8 L286.2 124.4 L288.1 125.2 L288.2 127.9 L289 128.1 L289.3 129 L289.6 131.8 L287.9 133.9 L285 134.7 L283.2 136.3 L281.8 136.5 L280.4 137.5 L280 138.4 L276.9 140.3 L275.4 141.6 L274.1 143.2 L273.6 145.2 L274.1 147.1 L275.1 149.5 L276.3 151.5 L276.3 152.7 L277.6 155.9 L277.5 157.8 L277.4 158.8 L276.7 160.5 L275.9 160.9 L274.5 160.6 L274.1 159.3 L273 158.7 L271.6 156.3 L270.3 154.2 L269.8 153.1 L270.4 151.2 L269.6 149.7 L267.5 147.4 L266.4 147 L263.6 148.2 L263.1 148.1 L261.7 146.8 L260 146.1 L256.9 146.5 L254.4 146.2 L252.3 146.3 L251.1 146.7 L251.6 147.5 L251.6 148.6 L252.2 149.2 L251.6 149.6 L250.6 149.1 L249.6 149.7 L247.6 149.6 L245.5 148.1 L243.1 148.5 L241 147.8 L239.3 148 L237 148.7 L234.4 150.7 L231.7 151.9 L230.2 153.2 L229.5 154.5 L229.5 156.4 L229.6 157.7 L230.2 158.7 L230.2 158.7 L230.2 158.7 L229.1 161.1 L228.6 163.1 L228.4 166.9 L228.1 168.2 L228.6 169.7 L229.5 171.1 L230 173.2 L231.9 175.3 L232.5 176.9 L233.6 178.3 L236.6 179 L237.7 180.2 L240.1 179.4 L242.3 179.1 L244.3 178.6 L246.1 178.1 L247.9 177 L248.5 175.4 L248.7 173 L249.2 172.2 L251.1 171.5 L254 170.9 L256.5 170.9 L258.2 170.7 L258.9 171.3 L258.8 172.6 L257.3 174.3 L256.6 176 L257.1 176.5 L256.7 177.7 L256 179.8 L255.3 179.1 L254.7 179.2 L254.7 179.6 L255.3 179.6 L255.2 180.3 L254.8 181.5 L255 182 L254.7 183 L254.9 183.2 L254.6 184.6 L254 185.4 L253.5 185.5 L253 186.4 L253.9 186.9 L254.1 186.5 L254.9 186.9 L255.2 187 L255.8 186.5 L256.6 186.4 L256.9 186.7 L257.3 186.5 L258.6 186.8 L259.9 186.7 L260.8 186.4 L261.1 186.1 L262 186.2 L262.7 186.4 L263.4 186.4 L263.9 186.1 L265.2 186.5 L265.6 186.6 L266.5 187.1 L267.3 187.7 L268.3 188.1 L269 188.9 L268.8 189.2 L268.7 189.8 L268.9 190.8 L268.3 191.7 L268 192.9 L267.9 194.1 L268.1 194.8 L268.1 196.1 L267.7 196.3 L267.4 197.5 L267.6 198.3 L267.1 199 L267.2 199.7 L267.6 200.2 L268.3 201.7 L269.4 202.8 L270.7 204 L271.7 205 L271.6 205.6 L272.8 205.7 L273 205.5 L273.8 206.1 L275.1 205.9 L276.3 205.2 L278 204.7 L279 203.9 L280.5 204 L280.4 204.3 L281.9 204.4 L283.2 204.9 L284.1 205.7 L285.1 206.5 L286.6 206.6 L288.6 204.6 L289.8 204.3 L289.8 203.4 L290.3 201.1 L291.9 199.8 L293.7 199.7 L293.9 199.1 L296.1 199.4 L298.3 198 L299.3 197.3 L300.7 196 L301.7 196.2 L302.4 196.9 L301.9 197.8 L301.8 198.5 L300.1 198.8 L301.1 200.1 L301 201.5 L299.8 203.2 L300.8 205.4 L302 205.2 L302.7 203.2 L301.8 202.2 L301.7 200.1 L305.1 199 L304.7 197.6 L305.7 196.8 L306.7 198.7 L308.7 198.8 L310.5 200.3 L310.6 201.2 L313.1 201.3 L316 201 L317.6 202.2 L319.7 202.6 L321.3 201.7 L321.3 201 L324.8 200.8 L328.1 200.8 L325.7 201.6 L326.7 202.9 L328.9 203.1 L331 204.5 L331.5 206.7 L332.9 206.7 L334 207.3 L335.8 208.3 L337.5 210.1 L337.6 211.6 L338.7 211.6 L340.2 213 L341.3 214 L344.6 214.5 L344.9 214 L347.1 213.8 L350.1 214.6 L351.1 214.9 L353.1 215.5 L356 217.9 L356.5 219 L357.5 218.9 L358.1 220.4 L359.7 225.3 L361.2 225.7 L361.3 227.6 L359.2 229.9 L360 230.8 L364.9 231.2 L365 234 L367.2 232.2 L370.6 233.2 L375.3 234.9 L376.6 236.5 L376.2 238 L379.4 237.2 L384.8 238.6 L388.9 238.5 L393.1 240.8 L396.6 243.9 L398.7 244.7 L401.1 244.9 L402.1 245.7 L403.1 249.3 L403.5 251 L402.4 255.5 L401 257.4 L397.1 261.2 L395.3 264.4 L393.3 266.8 L392.6 266.8 L391.8 268.9 L392 274.1 L391.2 278.4 L390.9 280.2 L390 281.3 L389.6 285 L386.7 288.6 L386.3 291.5 L384 292.7 L383.4 294.4 L380.3 294.4 L376 295.4 L374 296.7 L370.9 297.5 L367.6 299.7 L365.3 302.4 L364.9 304.5 L365.3 306 L364.8 308.9 L364.2 310.2 L362.3 311.7 L359.2 316.6 L356.7 318.8 L354.8 320.1 L353.6 322.8 L351.7 324.4 L350.5 326.1 L347.4 327.6 L345.3 327.1 L343.8 327.4 L341.3 326.2 L339.4 326.3 L337.7 324.7 L337.5 326.2 L341 328.6 L340.7 330.5 L342.4 331.7 L342.3 333.1 L339.6 336.6 L335.5 338.1 L329.9 338.7 L326.8 338.4 L327.4 340.1 L326.9 342.1 L327.4 343.5 L325.7 344.5 L322.9 344.9 L320.2 343.9 L319.1 344.6 L319.5 347.4 L321.4 348.2 L322.9 347.3 L323.7 348.8 L321.2 349.6 L318.9 351.4 L318.5 354.2 L317.9 355.7 L315.3 355.7 L313.1 357.1 L312.3 359.2 L315 361.2 L317.7 361.8 L316.7 364.3 L313.4 365.8 L311.6 369.1 L309.1 370.2 L307.9 371.5 L308.8 374.4 L310.7 376 L309.5 375.8 L307.1 375.8 L305.7 376.5 L303.2 377.5 L302.8 380.1 L301.6 380.2 L298.5 379.3 L295.3 377.3 L291.8 375.7 L290.9 374 L291.7 372.3 L290.3 370.5 L290 365.8 L291.2 363.1 L294.1 360.9 L289.9 360.1 L292.5 357.7 L293.5 353.1 L296.6 354 L298 348.3 L296.1 347.5 L295.3 351 L293.5 350.6 L294.4 346.7 L295.3 341.5 L296.6 339.6 L295.8 336.9 L295.6 333.8 L296.8 333.7 L298.5 329.2 L300.4 324.7 L301.6 320.6 L300.9 316.4 L301.8 314.2 L301.4 310.7 L303 307.3 L303.5 302 L304.4 296.2 L305.3 290 L305.1 285.4 L304.5 281.5 L301.7 279.9 L301.5 278.8 L296 276 L291 273 L288.9 271.2 L287.7 269 L288.2 268.2 L285.8 264.5 L283.1 259.4 L280.5 253.9 L279.3 252.6 L278.4 250.5 L276.3 248.7 L274.3 247.6 L275.2 246.4 L273.9 243.7 L274.7 241.8 L276.9 240 L278.4 237.9 L277.8 236.7 L276.8 238 L275.1 236.8 L275.7 236 L275.2 233.5 L276.2 233.1 L276.7 231.3 L277.7 229.6 L277.5 228.4 L279 227.8 L281 226.7 L280.6 225.9 L281.6 225.6 L281.5 224.3 L282.1 223.3 L283.5 223.1 L284.7 221.3 L285.8 219.9 L284.7 219.2 L285.3 217.6 L284.6 215 L285.2 214.3 L284.8 212 L283.7 210.5 L282.7 209.7 L282.1 208.2 L282.8 207.4 L282.1 207.3 L281.6 206.3 L280.2 205.6 L279 205.7 L278.4 206.7 L277.3 207.4 L276.7 207.5 L276.4 208.1 L277.8 209.6 L277 209.9 L276.6 210.4 L275.3 210.5 L274.8 208.8 L274.5 209.3 L273.6 209.1 L273 208 L271.9 207.8 L271.1 207.5 L269.9 207.5 L269.9 208.1 L269.5 207.7 L268 207.1 L267.5 206.5 L267.8 206 L267.7 205.4 L266.9 204.7 L265.8 204.2 L264.9 203.8 L264.7 203 L264 202.5 L264.1 203.3 L263.6 204 L262.9 203.2 L262.1 203 L261.7 202.4 L261.7 201.6 L262.1 200.7 L261.3 200.3 L261.9 199.8 L260.9 198.9 L259.7 197.8 L259 196.8 L257.9 195.9 L256.5 194.7 L256.8 194.3 L257.2 194.7 L257.5 194.5 L257 193.6 L256.1 193.4 L255.8 194 L254.2 194 L253.2 193.7 L252.1 193.2 L250.5 193 L249.7 192.4 L248.3 191.9 L246.6 191.9 L245.3 191.3 L243.8 190.2 L240.7 187.2 L239.2 186.3 L237 185.6 L235.4 185.8 L233.2 186.8 L231.8 187.1 L229.8 186.3 L227.7 185.8 L225.1 184.5 L223.1 184.1 L219.9 182.9 L217.6 181.5 L216.9 180.8 L215.3 180.6 L212.5 179.7 L211.3 178.5 L208.4 176.9 L207 175.1 L206.3 173.8 L207.2 173.5 L206.9 172.7 L207.6 172 L207.6 171 L206.7 169.8 L206.4 168.7 L205.5 167.3 L203 164.5 L200.2 162.4 L198.9 160.6 L196.5 159.5 L196 158.8 L196.4 157.1 L195 156.5 L193.4 155.1 L192.7 153.2 L191.2 152.9 L189.6 151.5 L188.3 150.1 L188.1 149.3 L186.6 147.2 L185.7 145 L185.7 144 L183.7 142.9 L182.8 143 L181.2 142.2 L180.7 143.4 L181.2 144.7 L181.5 146.8 L182.4 147.9 L184.5 149.8 L184.9 150.5 L185.4 150.7 L185.7 151.6 L186.2 151.6 L186.8 153.4 L187.6 154.1 L188.2 155.1 L190 156.5 L190.9 159.1 L191.7 160.3 L192.5 161.6 L192.6 163.1 L194 163.2 L195.1 164.4 L196.1 165.7 L196 166.2 L194.8 167.2 L194.4 167.2 L193.6 165.5 L191.8 163.9 L189.8 162.5 L188.4 161.8 L188.5 159.8 L188.1 158.3 L186.7 157.4 L184.8 156.2 L184.5 156.6 L183.8 155.8 L182 155.2 L180.4 153.5 L180.6 153.3 L181.7 153.5 L182.8 152.5 L182.9 151.2 L180.7 149.2 L179.1 148.5 L178.1 146.7 L177.1 144.9 L175.8 142.7 L174.6 140.2 L174.2 138.8 L172.4 137.2 L171.1 136.8 L170.8 136 L169.2 135.9 L168.2 135.1 L165.6 134.9 L164.9 134.4 L164.6 132.9 L161.9 130.1 L159.6 126.2 L159.7 125.6 L158.5 124.7 L156.3 122.4 L155.9 120.1 L154.4 118.6 L155.1 116.3 L155 113.9 L154.1 111.8 L155.2 109.1 L155.8 104.1 L155.3 100.4 L154.5 98 L153.6 96.7 L154 96.2 L158 97.1 L159.5 99.7 L160.2 99 L159.7 96.7 L158.8 94.4 L158.4 94.4 L153 91.7 L151 90.5 L146 89.4 L144.5 86.9 L144.9 85.2 L141.3 84 L140.8 81.8 L137.5 79.8 L137.4 78.3 L135.9 77.3 L133.4 76.4 L132.6 74 L129.1 71.7 L127.6 69.1 L124.9 68.9 L120.5 68.9 L117.2 68.1 L111.5 65.2 L108.8 64.6 L104 63.7 L100.1 63.9 L94.7 62.6 L91.3 61.4 L88.3 62 L88.8 63.9 L87.3 64.1 L84.1 64.7 L81.6 65.6 L78.6 66.2 L78.2 64.6 L79.4 61.9 L82.4 61 L81.6 60.3 L78.1 61.9 L76.2 63.7 L72.2 65.7 L74.2 67 L71.6 69 L68.6 70.2 L65.8 71 L65.1 72.3 L60.8 73.7 L59.9 75 L56.7 76.2 L54.8 76 L52.2 76.8 L49.3 77.7 L47 78.6 L42.3 79.4 L41.8 79 L44.9 77.7 L47.6 76.8 L50.5 75.3 L54 75 L55.4 73.8 L59.2 72.2 L59.8 71.6 L61.9 70.6 L62.4 68.5 L63.8 66.9 L60.6 67.7 L59.7 67.3 L58.2 68.3 L56.4 66.9 L55.6 67.9 L54.6 66.5 L51.8 67.6 L50.1 67.6 L49.8 65.9 L50.3 64.9 L48.6 63.9 L44.9 64.4 L42.6 63.1 L40.7 62.5 L40.7 60.9 L38.6 59.7 L39.6 58.1 L41.9 56.6 L42.9 55.1 L45.1 54.9 L47 55.4 L49.3 54.1 L51.3 54.3 L53.4 53.4 L52.9 52.2 L51.3 51.7 L53.4 50.6 L51.7 50.6 L48.7 51.2 L47.9 51.8 L45.7 51.2 L41.8 51.5 L37.7 50.9 L36.5 49.8 L33 48.1 L36.9 47 L43.1 45.6 L45.4 45.6 L45 47 L50.9 46.9 L48.6 45.2 L45.2 44.1 L43.2 42.7 L40.6 41.5 L36.8 40.7 L38.3 39.2 L43.2 39.1 L46.8 37.9 L47.4 36.5 L50.3 35.2 L53 34.9 L58.2 33.6 L60.8 33.8 L65.1 32.3 L69.3 32.9 L71.3 34.2 L72.5 33.6 L77.2 33.8 L77 34.4 L81.3 34.9 L84.1 34.6 L90 35.5 L95.3 35.8 L97.4 36.1 L101.1 35.7 L105.4 36.5 L108.4 36.9 L113.6 37.6 L117.9 38.9 L120.8 39.2 L123.3 38 L126.6 37.1 L130.8 37.5 L134.9 36.3 L139.5 35.6 L141.4 36.7 L143.4 36.1 L144.1 34.8 L146 35.1 L150.7 37.6 L154.4 35.7 L154.8 37.8 L158.2 37.3 L159.2 36.5 L162.6 36.7 L166.8 37.8 L173.3 38.9 L177.1 39.3 L179.9 39.2 L183.6 40.6 L179.7 41.9 L184.7 42.5 L192.2 42.2 L194.6 41.7 L197.6 43.4 L200.6 42 L197.7 40.8 L199.5 39.9 L202.9 39.7 L205.1 39.4 L207.4 40.1 L210.2 41.6 L213.3 41.4 L218.2 42.6 L222.5 42.2 L226.5 42.3 L226.2 40.5 L228.7 40.1 L233 41 L233 43.6 L234.8 41.4 L237 41.5 L238.2 38.7 L235.3 37 L232 35.9 L232.2 32.8 L235.5 30.8 L239.2 31.2 L242 32.4 L245.8 35.6 L243.3 36.9 L248.5 37.5 ZM182.9 27.4 L181.5 28.7 L187.7 27.9 L191.5 29.3 L194.7 27.9 L197.2 28.8 L199.5 31.5 L200.9 30.4 L198.9 27.5 L201.3 27.1 L204.1 27.6 L207.2 28.7 L209 31.4 L209.8 33.4 L214.5 34.7 L219.5 36 L219.2 37.3 L214.6 37.5 L216.4 38.6 L215.5 39.6 L210.4 39.1 L205.7 38.4 L202.4 38.6 L197.2 39.5 L189 40 L185.2 40.2 L183.7 38.9 L179.9 38.1 L177.5 38.4 L174.1 36.2 L175.9 35.9 L180.2 35.5 L184.1 35.6 L187.7 35.1 L182.4 34.4 L176.4 34.7 L172.5 34.6 L171 33.6 L177.5 32.5 L173.2 32.5 L168.3 31.8 L170.7 29.7 L172.6 28.6 L180 26.9 L182.9 27.4 ZM209.7 26.6 L207.3 28.4 L202.9 26.5 L203.9 26.1 L207.6 26 L209.7 26.6 ZM287.9 27.5 L288.2 28.3 L285.2 28.2 L282.2 28.1 L279.2 28.5 L278.4 28.3 L275.3 26.9 L275.5 25.9 L276.8 25.7 L283.2 26 L287.9 27.5 ZM259.5 27.3 L261.7 29.1 L264.3 26.8 L271.3 25.7 L276.1 28.6 L275.7 30.4 L281.2 29.6 L283.8 28.5 L290 29.9 L293.8 31.2 L294.2 32.4 L299.3 31.8 L302.2 33.6 L308.9 34.7 L311.3 35.8 L314 38.4 L308.9 39.7 L315.4 41.5 L319.8 42.1 L323.8 44.6 L328.2 44.8 L327.3 46.8 L322.4 50 L319 48.8 L314.7 46.1 L311.1 46.5 L310.7 48.1 L313.6 49.7 L317.4 51 L318.6 51.7 L320.4 54.5 L319.4 56.5 L315.9 55.7 L308.9 53.5 L312.9 55.9 L315.8 57.6 L316.2 58.5 L308.7 57.4 L302.7 55.8 L299.3 54.5 L300.3 53.7 L296.2 52.2 L292.1 50.9 L292.2 51.7 L284.1 52.1 L281.8 51.2 L283.6 49.1 L288.8 49.1 L294.6 48.7 L293.6 47.7 L294.6 46.4 L298.2 43.7 L297.4 42.4 L296.4 41.5 L292.1 40.1 L286.5 39.2 L288.3 38.5 L285.3 36.8 L282.9 36.6 L280.7 35.6 L279.2 36.5 L274.2 36.8 L264 36.2 L258.2 35.4 L253.7 35 L251.4 34 L254.3 32.7 L250.3 32.7 L249.4 29.9 L251.6 27.4 L254.4 26.3 L261.6 25.5 L259.5 27.3 ZM221.2 25.4 L224.5 26 L229.5 25.7 L230.2 26.5 L227.6 27.8 L231.8 29 L231.3 31.5 L226.8 32.6 L224.1 32.3 L222.2 31.3 L215.3 29.1 L215.3 28.3 L221 28.6 L217.9 26.8 L221.2 25.4 ZM898.9 27.2 L894.7 27.2 L889 26.9 L888.5 26.8 L891.1 25.7 L894.6 25.4 L898.6 26.5 L898.9 27.2 ZM241.1 28.4 L238.1 30.5 L235 30.4 L233.2 27.9 L233.3 26.6 L234.7 25.4 L237.5 24.6 L243.3 24.7 L248.6 25.4 L244.4 27.9 L241.1 28.4 ZM165.4 32.2 L158.1 33.6 L156.6 32.4 L150.2 30.9 L151.1 30 L153.3 27.7 L155.7 25.9 L153 24.2 L162.4 23.8 L166.4 24.3 L173.5 24.5 L176.2 25.3 L179.1 26.5 L175.6 27.2 L168.8 29.1 L165.4 31.1 L165.4 32.2 ZM918.7 22 L915.5 23.1 L911 22.8 L905.9 21.7 L906.6 20.8 L911.7 21.3 L918.7 22 ZM240 22.3 L238.5 23.4 L234.4 23.1 L231.1 22.4 L232.5 21.2 L236.5 20.4 L239 21.4 L240 22.3 ZM903 20.7 L900.8 22.7 L890.6 22.6 L886 23.3 L880.5 21.5 L882 19.6 L885.6 19.1 L893 19.2 L903 20.7 ZM226.4 17.4 L228.5 18.7 L228.6 20.2 L227.3 22.2 L222.8 22.5 L219.8 22.1 L219.8 20.4 L215.3 20.7 L215.1 18.5 L218.1 18.6 L222.3 17.6 L226.2 17.8 L226.4 17.4 ZM199.4 18.9 L200.5 19.9 L203 19.4 L205.9 19.5 L206.4 20.9 L204.7 22.2 L195.3 22.6 L188.3 23.8 L184 23.9 L183.7 23 L189.5 21.8 L176.9 22.1 L173 21.6 L176.8 18.9 L179.4 18.1 L187.2 19.1 L192.2 20.7 L197 20.9 L193.1 18.3 L195.6 17.2 L198.5 17.6 L199.4 18.9 ZM659.8 34.1 L658.2 34.4 L649.1 34 L648.4 32.8 L643.3 32 L642.9 30.5 L645.8 29.9 L645.7 28.4 L651.2 26 L648.6 25.7 L655.3 23.3 L654.5 22 L660.7 20.5 L669.9 18.7 L679.2 18.2 L683.9 17.2 L689.3 16.8 L691.3 17.9 L689.4 18.8 L679.5 20.2 L671.1 21.5 L662.4 24.1 L658.3 26.9 L653.9 29.5 L654.5 31.8 L659.8 34.1 ZM237 16.4 L240.1 17.3 L245.5 17.3 L247.9 18.2 L247.3 19.2 L250.5 19.9 L252.3 20.5 L256 20.6 L260.1 20.9 L264.5 20.3 L270.1 20 L274.6 20.2 L277.6 21.3 L278.2 22.4 L276.5 23.2 L272.4 23.8 L268.8 23.4 L260.8 23.9 L255.1 23.9 L250.7 23.6 L243.3 22.7 L242.3 21.1 L242 19.8 L239.2 18.6 L233.4 18.2 L230.2 17.4 L231.3 16.2 L237 16.4 ZM177.2 14.9 L176.8 17 L174.7 18 L172.1 18.1 L166.9 19.3 L162.5 19.7 L158.7 19.1 L158.7 19.1 L163.5 17 L169.2 15.2 L173.4 15.3 L177.2 14.9 ZM797.1 16.7 L797.9 18.1 L800.4 17.4 L808.5 17.5 L814.8 18.8 L817 19.9 L816.3 21.3 L813.3 22.1 L806 23.7 L803.9 24.5 L807.3 24.9 L811.4 25.6 L813.9 25.1 L815.4 26.8 L816.6 26.1 L821 25.7 L829.9 26.1 L830.6 27.4 L842.2 27.9 L842.4 25.7 L848.3 26.2 L852.7 26.2 L857.2 27.7 L858.5 29.4 L856.8 30.6 L860.3 32.8 L864.7 33.9 L867.4 31 L871.8 32.3 L876.6 31.5 L881.9 32.4 L884 31.6 L888.5 32 L886.5 29.4 L890.2 28.2 L915.3 30 L917.6 31.6 L924.9 33.8 L936.1 33.2 L941.7 33.7 L944 34.9 L943.6 36.9 L947.1 37.7 L950.8 37.1 L955.7 37 L960.9 37.6 L966.2 37.3 L971 39.7 L974.5 38.9 L972.2 37.1 L973.5 35.8 L982.3 36.6 L988.1 36.5 L996.1 37.8 L1000 39 L1000 50.1 L1000 50.1 L996.4 51.3 L992.8 51.1 L995.3 52.6 L997 54.9 L998.3 55.6 L998.6 56.8 L997.9 57.5 L992.7 56.9 L984.9 59 L982.4 59.3 L978.2 61.2 L974.2 63 L973.1 64.2 L969.2 62.3 L961.9 64.5 L960.7 63.4 L958 64.6 L954.3 64.3 L953.4 66.1 L950 68.8 L950.1 69.9 L953.3 70.5 L952.9 74.6 L950.4 74.7 L949.2 77 L950.3 78.2 L945.5 79.6 L944.5 82.8 L940.4 83.4 L939.5 86.3 L935.5 88.9 L934.5 86.9 L933.3 82.9 L931.8 76.7 L933.1 72.9 L935.4 71.2 L935.6 69.9 L939.9 69.3 L944.9 65.8 L949.6 62.9 L954.6 60.7 L956.9 56.8 L953.5 57 L951.8 59.3 L944.8 62.4 L942.5 59 L935.3 59.9 L928.4 64.6 L930.7 66.3 L924.5 67 L920.2 67.3 L920.4 65.3 L916.1 64.8 L912.6 66.2 L904.1 65.7 L895 66.6 L886 72 L875.4 78.5 L879.7 78.9 L881.1 80.6 L883.8 81.2 L885.6 79.8 L888.6 80 L892.6 83.1 L892.7 85.4 L890.5 88.2 L890.3 91.5 L889.1 96 L884.9 100 L883.9 101.9 L880.2 105.2 L876.4 108.4 L874.6 110 L870.9 111.6 L869.2 111.7 L867.4 110.3 L863.7 112.4 L863.3 113.3 L862.2 113.1 L861 114.1 L860.2 115 L860.3 117 L858.9 117.6 L858.4 118.1 L857.3 118.9 L855.5 119.4 L854.3 120.1 L854.2 121.3 L853.8 121.6 L855 122.1 L856.5 123.3 L858.9 126.6 L859.6 128.4 L859.6 131.6 L858.6 133.1 L856.1 133.6 L853.9 134.8 L851.3 135 L851 133.5 L851.6 131.4 L850.3 128.5 L852.4 128.1 L850.5 125.7 L849.1 125.2 L848.8 125.7 L848 125.9 L847.9 125.4 L847.2 125.1 L846.4 124.7 L847.2 123.5 L847.8 123.2 L847.6 122.6 L848.3 121.1 L848.1 120.7 L846.5 120.4 L845.2 119.6 L841.3 120.5 L839.3 121.7 L836.3 122.5 L837.7 121.2 L837.2 120.1 L839.4 118.3 L837.9 116.8 L835.5 117.8 L832.3 119.7 L830.6 121.5 L827.9 121.7 L826.5 123 L827.9 124.8 L830.2 125.3 L830.3 126.5 L832.5 127.3 L835.6 125.4 L838.1 126.4 L839.9 126.5 L840.3 128 L836.4 128.7 L835.1 130.2 L832.4 131.6 L831 133.6 L834 135.1 L835.1 137.8 L836.7 140.4 L838.6 142.5 L838.6 144.6 L836.8 145.3 L837.5 146.8 L839.1 147.7 L838.7 149.9 L838 152.2 L836.5 152.4 L834.4 155.4 L832.2 159.1 L829.6 162.4 L825.8 164.9 L821.9 167.3 L818.8 167.6 L817.1 168.8 L816.1 167.9 L814.6 169.3 L810.7 170.7 L807.7 171.1 L806.8 174.1 L805.2 174.2 L804.5 172.2 L805.2 171.1 L801.5 170.2 L800.1 170.7 L796.4 173.1 L794.1 175.7 L793.5 177.6 L795.6 180.5 L798.2 184.2 L800.7 185.9 L802.4 188.1 L803.7 193.3 L803.3 198.1 L801 200 L797.8 201.8 L795.6 204.1 L792.1 206.7 L791.1 204.9 L791.9 203 L789.8 201.4 L787.5 201 L786.4 199.6 L785 196.7 L782.5 195.4 L780.1 195.5 L780.5 193.3 L778 193.3 L777.8 196.4 L776.3 200.4 L775.4 202.9 L775.6 204.9 L777.4 205 L778.6 207.5 L779.1 209.9 L780.6 211.5 L782.3 211.8 L783.7 213.3 L784.4 213.5 L786 215.2 L787.2 217.1 L787.3 218.9 L787 220.2 L787.3 221.2 L787.5 222.8 L788.5 223.6 L789.6 226 L789.5 227 L787.6 227.1 L784.9 225.1 L781.6 222.9 L781.3 221.5 L779.7 219.6 L779.3 217.3 L778.3 215.8 L778.6 213.8 L778 212.6 L776.9 211.5 L776.4 210.2 L775 208.6 L773.6 207.3 L773.2 208.9 L772.6 207.4 L772.9 205.6 L773.8 203 L773.5 200.9 L774.3 198.8 L773.4 197.1 L773.6 194.1 L772.5 192.7 L771.6 189.3 L771.1 185.8 L769.9 183.5 L768.1 184.9 L764.9 186.9 L763.4 186.7 L761.6 186 L762.6 182.6 L762 180 L759.8 176.8 L760.2 175.8 L758.6 175.4 L756.6 173.1 L755.8 171.7 L755.6 170.3 L755.1 168.9 L753.9 167.3 L751.4 167.2 L751.6 168.4 L750.8 169.9 L749.6 169.3 L749.2 169.8 L748.4 169.5 L747.3 169.3 L746.9 170.3 L745 170.3 L741.6 170.8 L741.8 172.9 L740.3 174.6 L736.3 176.4 L733.2 179.7 L731.1 181.5 L728.3 183.3 L728.3 184.6 L726.9 185.2 L724.4 186.2 L723.1 186.4 L722.3 188.5 L722.9 192.1 L723 194.4 L721.8 197.1 L721.8 201.8 L720.4 201.9 L719.1 204 L720 205 L717.4 205.7 L716.5 207.6 L715.4 208.4 L712.8 205.8 L711.5 201.9 L710.4 199.1 L709.4 197.8 L708 195.2 L707.3 191.7 L706.8 190 L704.3 186.1 L703.1 180.8 L702.3 177.2 L702.3 173.8 L701.8 171.2 L697.7 172.9 L695.8 172.6 L692.1 169.2 L693.5 168.2 L692.6 167.1 L689.4 164.7 L687.3 164 L686.5 162 L684.4 159.9 L679.3 160.5 L674.7 160.5 L670.8 160.9 L665.6 160.1 L662.6 159.4 L659.4 159.1 L658.3 155.6 L656.9 155.2 L654.8 155.7 L652 157 L648.6 156.1 L645.8 153.9 L643.1 153.2 L641.3 150.5 L639.2 146.8 L637.7 147.3 L635.9 146.3 L634.9 147.4 L633.3 147.3 L633.8 148.5 L633.6 149.1 L634.5 151.2 L635.6 153.6 L636.9 154.3 L637.4 155.2 L639.3 156.4 L639.5 157.6 L639.2 158.5 L639.6 159.4 L640.4 160.2 L640.7 161.1 L641.1 161.8 L641 159.8 L641.7 158.3 L642.5 158 L643.3 158.9 L643.4 160.5 L642.7 162.1 L643.3 163.2 L643.8 163.1 L643.9 163.8 L646 163.4 L648.3 163.5 L650 163.6 L651.9 161.7 L654 159.9 L655.8 158.2 L656.6 157.2 L656.9 157.5 L656.6 158.6 L656.3 159.1 L656.7 161.3 L657.9 163.2 L659.5 164.2 L661.5 164.6 L663.1 165.1 L664.4 166.7 L665.1 167.6 L666.1 168 L666.1 168.6 L665.1 170.2 L664.7 171 L663.5 171.9 L662.5 173.8 L661.2 173.7 L660.6 174.3 L660.2 175.7 L660.5 177.6 L660.3 177.9 L659 177.9 L657.2 179 L657 180.3 L656.3 180.9 L654.6 180.9 L653.5 181.6 L653.5 182.7 L652.2 183.5 L650.7 183.2 L648.8 184.1 L647.5 184.3 L645.5 185 L645 186.3 L644.9 187.2 L642.1 188.4 L637.7 189.7 L635.2 191.7 L634 191.8 L633.2 191.6 L631.5 192.8 L629.8 193.3 L627.4 193.5 L626.7 193.6 L626.1 194.4 L625.4 194.6 L625 195.3 L623.6 195.2 L622.7 195.6 L620.8 195.5 L620.1 193.8 L620.1 192.3 L619.7 191.5 L619.1 189.4 L618.3 188.3 L618.9 188.2 L618.6 186.9 L619 186.4 L618.8 185.1 L618.5 184 L617.6 183.1 L617.4 182 L616 181 L614.5 178.7 L613.7 176.4 L611.8 174.5 L610.6 174.1 L608.7 171.4 L608.4 169.5 L608.5 167.8 L606.9 164.8 L605.6 163.7 L604.1 163.1 L603.2 161.5 L603.4 160.9 L602.6 159.4 L601.8 158.8 L600.7 156.7 L599 154.5 L597.6 152.6 L596.2 152.6 L596.6 151.1 L596.8 150.1 L597.1 149 L597 148.6 L596.2 149.7 L595.6 151.8 L594.9 153.3 L594.2 153.8 L593.3 152.9 L592 151.6 L590.1 147.6 L589.8 147.9 L590.9 150.8 L592.6 153.6 L594.7 157.9 L595.8 159.4 L596.7 161 L599.1 164.1 L598.6 164.6 L598.7 166.4 L601.9 168.9 L602.4 169.4 L603.3 172.2 L602.7 172.7 L603.1 175.5 L604.1 178.8 L605.2 179.5 L606.7 180.6 L608.3 183.8 L609.1 186.3 L610.6 187.7 L614.4 190.3 L615.9 191.9 L617.4 193.5 L618.3 194.4 L619.7 195.3 L620.3 196.1 L620.2 197.3 L618.7 198 L619.8 198.7 L620.8 199.2 L621.3 200.4 L622.5 201.5 L623.9 201.5 L626.5 200.8 L629.6 200.5 L632 199.6 L633.4 199.5 L634.4 199 L636 198.9 L636.9 198.8 L638.1 198.4 L639.6 198.1 L640.9 197.2 L642 197.2 L642 197.9 L641.8 199.5 L641.8 201 L641.2 202 L640.4 205 L639.1 208.1 L637.4 211.7 L635 215.7 L632.6 218.8 L629.3 222.6 L626.6 224.9 L622.4 227.6 L619.8 229.7 L616.8 233.1 L616.1 234.6 L615.5 235.2 L613.6 236.3 L612.9 237.5 L611.8 237.7 L611.4 239.7 L610.6 240.8 L610 242.6 L608.9 243.5 L607.6 247 L607.8 248.5 L609.6 249.6 L609.6 250.3 L608.9 252 L609 252.8 L608.9 254.1 L609.8 255.9 L611 258.6 L612 259.2 L612.4 260.5 L612.3 263.2 L612.7 265.7 L612.8 270 L613.3 271.4 L612.4 273.4 L611.4 275.3 L609.6 277 L607.1 278.1 L603.9 279.4 L600.8 282.4 L599.7 282.9 L597.8 284.9 L596.6 285.5 L596.4 287.5 L597.7 289.6 L598.3 291.2 L598.3 292.1 L598.8 291.9 L598.7 294.6 L598.3 295.9 L598.9 296.4 L598.5 297.6 L597.3 298.6 L595 299.5 L591.7 301 L590.5 302 L590.7 303.2 L591.4 303.4 L591.2 304.8 L590.5 306.9 L590.2 309.2 L589.5 310.4 L587.6 311.8 L587 312.2 L585.8 313.6 L585.1 315.1 L583.5 317.1 L580.3 319.9 L578.4 321.6 L576.3 322.9 L573.4 323.9 L572 324.1 L571.6 324.8 L569.9 324.4 L568.5 325 L565.5 324.4 L563.9 324.8 L562.7 324.6 L559.8 325.7 L557.5 326.2 L555.8 327.2 L554.5 327.3 L553.3 326.3 L552.4 326.2 L551.2 325 L551 325.4 L550.7 324.6 L550.7 323 L549.8 321.1 L550.7 320.6 L550.6 318.5 L548.8 315.9 L547.4 313.6 L547.4 313.5 L545.4 309.9 L543.3 307.8 L542.3 305.8 L541.6 303.1 L541 301.1 L540 296.8 L540 293.5 L539.6 292 L538.5 290.8 L537.1 288.5 L535.6 285.2 L535 283.5 L532.8 280.7 L532.6 278.6 L532.3 276.9 L532.7 274.4 L533.7 271.9 L533.8 270.7 L534.7 268.2 L535.4 267 L537 265.2 L537.9 264 L538.2 261.9 L538 260.4 L537.2 259.4 L536.4 257.7 L535.8 256 L535.9 255.4 L536.8 254.3 L535.9 251.7 L535.4 249.8 L534 248 L534.2 247.5 L533.8 246.6 L533.1 244.5 L530.8 241.6 L528 238.8 L526.1 236.5 L524.4 233.6 L524.5 232.7 L525.1 231.8 L525.8 229.8 L526.4 227.7 L525.8 227.3 L526.8 224.2 L527.2 222 L526.1 220.2 L524.9 219.7 L524.3 218.5 L523.6 218.1 L523.6 217.3 L520.7 218.3 L519.7 218.2 L518.6 218.8 L516.4 218.7 L514.9 217 L514 215 L512 213.1 L509.9 213.2 L507.5 213.2 L505.2 213.5 L502.9 214.1 L498.6 215.7 L497 216.7 L494.5 217.5 L492.1 216.7 L490.8 216.7 L488.9 216.2 L487.1 216.2 L483.8 216.7 L481.9 217.5 L479.1 218.5 L478.6 218.4 L477.8 218.5 L475 217.1 L472.5 215 L470.1 213.5 L468.2 211.7 L467.5 211.5 L465.5 210.4 L464 208.9 L463.5 207.9 L463.2 205.8 L462 204.2 L460.9 203.1 L460.2 202.7 L459.5 202.2 L459.2 201 L458.8 200.3 L458 199.9 L456.5 198.7 L455.3 198.5 L454.7 197.8 L454.7 197.3 L453.9 196.7 L453.7 196.2 L453.2 194 L453.6 192.8 L452.4 190.6 L451 189.6 L452.3 189.1 L453.6 187.2 L454.3 185.7 L454 184.2 L454.8 182.9 L455.1 180.3 L454.8 177.5 L454.5 176.1 L454.8 174.7 L454.1 173.4 L452.6 172.2 L452.7 171 L452.9 169.8 L453.9 169 L454.8 167.6 L454.6 166.6 L455.6 164.7 L457.1 162.9 L458.1 162.4 L458.8 160.8 L458.9 159.3 L459.9 157.6 L461.7 156.6 L463.5 153.8 L464.9 152.7 L467.5 152.4 L469.7 150.5 L471.1 149.7 L473.4 147.4 L472.7 144 L473.8 141.6 L474.2 140.1 L476 138.2 L478.7 137 L480.8 135.8 L482.7 132.9 L483.5 131.2 L485.6 131.2 L487.2 132.4 L489.9 132.2 L492.8 132.8 L494 132.9 L496.6 131.3 L499.6 130.9 L501.4 129.7 L504.1 128.9 L508.8 128.4 L513.4 128.2 L514.8 128.6 L517.4 127.5 L520.4 127.4 L521.5 128.1 L523.4 127.9 L526.4 126.8 L528.4 127.1 L528.3 128.5 L530.6 127.5 L530.8 128.1 L529.4 129.4 L529.4 130.7 L530.4 131.4 L530 133.8 L528.2 135.2 L528.7 136.7 L530.2 136.8 L530.9 138.1 L531.9 138.5 L535.2 139.5 L536.3 139.2 L538.7 139.7 L542.3 140.9 L543.6 143.4 L546.1 143.9 L550.1 145.1 L553 146.5 L554.4 145.8 L555.7 144.5 L555.1 142.4 L555.9 141 L557.9 139.7 L559.8 139.3 L563.6 139.9 L564.5 141.1 L565.6 141.1 L566.5 141.6 L569.2 141.9 L569.9 142.9 L573.6 142.8 L576.3 143.6 L579 144.4 L580.3 144.8 L582.5 143.9 L583.6 143.1 L586 142.9 L588 143.3 L588.8 144.6 L589.4 143.7 L591.6 144.4 L593.8 144.5 L595.2 143.8 L596 142.9 L595.8 142.8 L596.5 141.5 L597.1 139.4 L597.5 138.7 L597.6 138.6 L598.6 136.4 L599.9 134.4 L600 134.3 L599.7 132.2 L600.4 131.1 L599.4 129.8 L600.4 128.7 L598.8 129 L596.4 128.3 L594.5 129.9 L590.3 130.3 L588.1 128.8 L585.1 128.7 L584.4 129.8 L582.5 130.2 L579.8 128.7 L576.8 128.7 L575.1 126 L573.1 124.4 L574.5 122.3 L572.7 120.9 L575.8 118.3 L580.1 118.2 L581.2 116.1 L586.5 116.4 L589.9 114.6 L593.1 113.8 L597.7 113.8 L602.5 115.7 L606.5 116.8 L609.8 116.4 L612.1 116.6 L615.4 115.2 L615.8 114 L615.1 112.1 L613.5 111.1 L612 110.8 L611 109.9 L607.4 107.6 L604.3 106.5 L601.9 104.9 L603.9 104.4 L606.2 102.1 L604.6 101 L608.7 99.9 L608.7 99.3 L606.2 99.7 L604 99.9 L602.1 100.8 L599.5 101 L597.1 102 L597.3 103.7 L598.6 104.4 L601.5 104.2 L600.9 105.2 L597.9 105.7 L594.1 107.3 L592.6 106.8 L593.2 105.5 L590.2 104.6 L590.6 104.1 L593.3 103.2 L592.5 102.6 L588.2 101.9 L588 100.8 L585.4 101.2 L584.4 102.7 L582.2 104.7 L582.3 105.5 L580.9 106.1 L580.1 105.8 L579.3 109.1 L577.9 110.3 L576.9 112.3 L577.8 113.9 L578.1 114.9 L580.5 115.8 L580 116.5 L576.7 116.7 L575.5 117.5 L573.2 119 L572.3 117.7 L572.4 117.2 L570.7 117.1 L569.2 116.8 L565.9 117.5 L567.8 119.1 L566.4 119.5 L564.8 119.6 L563.4 118.1 L562.9 118.7 L563.5 120.4 L564.9 121.7 L563.8 122.3 L565.4 123.6 L566.7 124.4 L566.8 126 L564.2 125.2 L565 126.6 L563.3 126.9 L564.3 129.4 L562.5 129.4 L560.2 128.2 L559.2 126 L558.7 124.1 L557.6 122.9 L556.2 121.3 L556 120.5 L555.5 120.3 L555.4 119.7 L553.9 118.7 L553.7 117.4 L553.9 115.5 L554.3 114.7 L553.8 114.2 L553.2 114 L552.5 113.1 L551.3 112.6 L548.6 111.5 L547 110.5 L544.5 109.7 L542.2 107.7 L542.7 107.5 L541.4 106.3 L541.4 105.3 L539.6 104.9 L538.8 106.1 L537.9 105.2 L538 104.2 L538.1 104.2 L538.7 103.9 L536.5 103.5 L534.2 104.5 L534.4 105.9 L534.1 106.7 L535 108.1 L537.6 109.5 L539 111.8 L542.1 114 L544.2 114 L544.9 114.6 L544.1 115.2 L546.6 116.2 L548.7 117 L551 118.5 L551.3 119 L550.8 120 L549.3 118.7 L546.9 118.2 L545.7 120 L547.7 121 L547.4 122.5 L546.2 122.7 L544.7 125 L543.6 125.3 L543.6 124.4 L544.1 122.9 L544.7 122.3 L543.7 120.7 L542.8 119.3 L541.7 119 L540.8 117.8 L539.1 117.3 L537.9 116.1 L535.8 116 L533.6 114.7 L531.1 112.9 L529.2 111.3 L528.3 108.6 L527 108.2 L524.7 107.3 L523.4 107.7 L521.8 109 L520.7 109.2 L518.1 110.8 L512.7 110 L508.6 110.9 L508.3 112.6 L508.4 114.2 L505.8 116 L502.3 116.6 L502 117.6 L500.3 119.1 L499.2 121.4 L500.3 122.9 L498.7 124.2 L498.1 126 L496 126.5 L494 128.7 L490.5 128.7 L487.9 128.7 L486.1 129.7 L485.1 130.7 L483.7 130.5 L482.7 129.5 L481.9 127.9 L479.3 127.5 L478.2 128.2 L476.7 127.8 L475.3 128.1 L475.7 126 L475.4 124.3 L474.2 124 L473.5 123 L473.8 121.1 L474.9 120.1 L475.1 119 L475.6 117.3 L475.6 116.2 L475 115.2 L474.9 114.2 L475 112.2 L473.9 111 L477.8 109 L481.2 109.5 L485 109.5 L487.9 110 L490.2 109.8 L494.7 109.9 L496.2 108.3 L496.7 102.7 L493.8 99.8 L491.8 98.4 L487.5 97.3 L487.2 95.3 L490.8 94.7 L495.5 95.4 L494.6 92.3 L497.3 93.5 L503.7 91.3 L504.6 89 L507 88.5 L509.2 87.9 L510.6 87.2 L513.1 83.1 L516.9 81.9 L519.2 82 L519.7 81.4 L522 81.3 L522.6 81.9 L524.4 80.5 L523.8 79.5 L523.7 77.9 L522.6 76.3 L522.5 73.5 L522.9 72.7 L523.7 71.9 L526.2 71.7 L527.2 71 L529.4 70.2 L529.3 71.6 L528.5 72.5 L528.8 73.3 L530.3 73.7 L529.6 74.8 L528.8 74.5 L526.8 76.5 L527.6 77.8 L527.6 78.9 L530.4 79.5 L530.4 80.5 L533.2 80 L534.8 79.2 L537.9 80.3 L539.2 81.2 L541.1 80.4 L545.5 79.1 L549 78.2 L551.7 78.7 L551.9 79.3 L554.6 79.4 L555.2 78.1 L559.1 77.2 L558.5 74.9 L558.6 72.8 L559.9 71.1 L562.6 70.1 L564.8 72.2 L567 72.2 L567.5 70 L567.9 68.4 L566.8 68.7 L565.1 67.7 L564.8 66.1 L568.3 65.4 L571.8 65 L574.9 65.4 L577.7 65.3 L580.9 63.8 L578 62.5 L572.9 62.7 L568 63.7 L563.5 64.3 L561.9 62.8 L559.2 61.9 L559.8 59.2 L558.5 56.6 L559.8 55 L562.3 53.3 L568.7 50.3 L570.6 49.7 L570.3 48.5 L566.4 47.2 L561.6 48 L558.9 49.9 L559.4 51.6 L554.9 53.9 L549.6 56.3 L547.6 60.2 L549.5 62.1 L552.2 63.7 L549.6 66.8 L546.7 67.4 L545.7 72.1 L544.1 74.7 L540.7 74.4 L539.2 76.6 L536 76.8 L535.1 74.1 L532.7 71 L530.6 67.1 L528.8 65.4 L523.3 68.6 L519.6 69.2 L515.7 67.8 L514.7 64.8 L513.9 58.4 L516.4 56.6 L523.8 54.3 L529.2 51.4 L534.3 47.6 L541 42.2 L545.7 40.1 L553.3 36.6 L559.4 35.4 L564 35.5 L568.2 33.2 L573.3 33.4 L578.2 32.8 L586.9 34.9 L583.3 35.6 L586.4 37.3 L589.3 36.4 L593.8 38.1 L601.4 38.7 L611.9 41.9 L614.1 43.2 L614.2 45 L611.2 46.5 L606.6 47.2 L594.2 45.1 L592.2 45.5 L596.7 47.5 L597.1 51.6 L600.6 52.5 L602.8 53.2 L603.2 51.8 L601.4 50.6 L603.3 49.6 L610 51.3 L612.3 50.7 L610.5 48.6 L616.9 45.9 L619.5 46.1 L622.1 47 L623.7 45.1 L621.4 43.5 L622.7 41.8 L620.7 40.1 L628.5 41 L630.1 42.5 L626.5 42.9 L626.6 44.4 L628.7 45.4 L633 44.8 L633.7 43 L639.5 41.7 L649.2 39.3 L651.3 39.4 L648.6 41.1 L652 41.4 L654 40.4 L659.2 40.4 L663.3 39.2 L666.5 40.9 L669.7 39.1 L666.8 37.4 L668.2 36.5 L676.4 37.4 L680.2 38.2 L690.3 41.4 L692.2 40 L689.3 38.5 L689.3 37.9 L685.9 37.6 L686.8 36.3 L685.3 34.1 L685.3 33.3 L690.4 30.7 L692.2 28.2 L694.3 27.7 L701.6 28.4 L702.2 29.9 L699.6 32.2 L701.3 33.1 L702.2 35 L701.6 38.8 L704.6 40.5 L703.4 42.4 L698 46.3 L701.2 46.7 L702.3 45.7 L705.3 45 L706.1 43.7 L708.5 42.3 L706.9 40.8 L708.2 38.9 L705.1 38.7 L704.4 37.1 L706.7 34.4 L703.1 32.1 L708 30.2 L707.4 28.2 L708.8 28.2 L710.2 29.7 L709.1 32.4 L712.1 32.9 L710.8 30.9 L715.5 29.8 L721.3 29.7 L726.4 31.2 L723.9 28.9 L723.6 26 L728.5 25.4 L735.2 25.5 L741.2 25.2 L738.9 23.7 L742.1 21.9 L745.3 21.8 L750.7 20.4 L758.1 20.1 L759 19.3 L766.3 19.1 L768.6 19.7 L774.8 18.2 L779.9 18.2 L780.7 17.1 L783.3 15.9 L789.9 14.7 L794.6 15.6 L790.8 16.3 L797.1 16.7 ZM636.4 115.9 L637.8 117.9 L639.1 118 L640 118.7 L637.7 119 L637.2 121.1 L636.7 122.1 L635.7 122.7 L635.8 124.1 L636.7 126.2 L639.3 126.7 L641.2 128.1 L645.2 128.6 L649.5 127.9 L649.8 127.2 L649.3 125.3 L649.7 122.4 L647.5 121.4 L648.2 119.5 L646.4 119.4 L647 117 L649.6 117.7 L652 116.8 L650 115.1 L649.2 113.5 L647 114.3 L646.7 116.3 L645.8 114.5 L645.7 113.8 L646.4 112.7 L645.8 111.7 L642.6 110.7 L641.4 108.2 L639.8 107.5 L639.7 106.6 L642.4 106.9 L642.5 104.9 L644.9 104.4 L647.3 104.8 L647.8 102.1 L647.3 100.4 L644.6 100.5 L642.2 99.9 L639 101.1 L636.4 101.7 L635.1 103.3 L632.4 103.8 L629.7 106.6 L632.2 109.3 L631.9 111.1 L635 114.4 L636.4 115.9 ZM239.3 15.2 L238.1 15.3 L232.9 15.1 L232.1 14.3 L237.7 14.4 L239.7 14.9 L239.3 15.2 ZM193.9 14.7 L188.7 15.5 L184.6 14.6 L186.9 13.7 L190.9 13.5 L194.8 13.9 L193.9 14.7 ZM568.7 14.3 L562.5 15.4 L557.6 14.8 L559.5 14.1 L557.8 13.2 L563.6 12.6 L564.7 13.7 L568.7 14.3 ZM195.4 12.2 L192 12.8 L187.4 12.8 L187.4 12.4 L190.3 11.5 L191.8 11.7 L195.4 12.2 ZM233.8 13.7 L229.7 14.3 L227.4 13.7 L226.2 12.6 L226 11.5 L229.6 11.6 L231.2 11.8 L234.6 12.7 L233.8 13.7 ZM222.1 13 L223.1 14.1 L218.6 13.8 L214 12.9 L207.8 12.8 L210.5 12 L207.2 11.3 L207 10.3 L212.4 10.7 L219.9 11.7 L222.1 13 ZM791.9 13 L776.2 14.1 L781.3 10.5 L783.6 10.1 L785.7 10.3 L792.7 11.9 L791.9 13 ZM550.7 9.2 L559.8 11.2 L552.9 12.3 L551.3 14.4 L548.9 14.9 L547.6 17.2 L544.2 17.3 L538.2 15.6 L540.7 14.6 L536.6 13.8 L531.2 11.5 L529 9.3 L536.6 8.3 L538.1 9.3 L542.1 9.2 L543.1 8.3 L547.2 8.2 L550.7 9.2 ZM570.7 7.2 L576.1 8.2 L572 9.7 L564 10 L555.8 9.5 L555.3 8.8 L551.3 8.7 L548.2 7.4 L556.8 6.7 L560.9 7.3 L563.7 6.5 L570.7 7.2 ZM642 6.8 L638.3 7.2 L635.8 7.4 L635.4 7.8 L632.2 8.3 L629.2 7.6 L630.8 6.8 L624.6 6.7 L630 6.2 L634.2 6.2 L634.8 6.9 L636.4 6.2 L639 5.8 L643.1 6.4 L642 6.8 ZM777.6 11.4 L771.5 11.8 L763.8 11 L759.2 9.9 L757.1 7.9 L753.3 7.4 L760.5 5.5 L766.5 4.9 L771.9 6.3 L778.3 8.9 L777.6 11.4 ZM258.3 9.3 L261.6 10.2 L257.8 11 L252.7 13.1 L247.8 13.3 L242 12.9 L239 11.8 L239.1 10.8 L241.3 10.1 L236.2 10.1 L233.1 9.2 L231.4 7.9 L233.3 6.7 L235.2 5.8 L238.1 5.6 L236.8 5 L243.3 4.8 L246.9 6.3 L251.5 6.9 L256.1 7.4 L258.3 9.3 ZM309.7 -0.3 L317.1 -0.1 L323.1 0.3 L328.2 1 L328.1 1.8 L321.3 3 L314.6 3.5 L312.1 4.2 L318.1 4.1 L311.6 5.8 L307 6.6 L302.3 8.9 L296.5 9.3 L294.8 9.9 L286.4 10.2 L290.2 10.6 L288.3 11.1 L290.6 12.4 L287.9 13.4 L283.6 14.2 L282.3 15.3 L278.4 16.1 L278.8 16.7 L283.6 16.6 L283.6 17.3 L276.2 18.9 L269 18.2 L260.8 18.6 L256.7 18.3 L251.4 18.1 L251.1 16.8 L256.2 16.2 L254.8 14.2 L256.5 14 L264 15.2 L260.2 13.4 L255.7 12.9 L257.9 11.8 L262.8 11.1 L263.6 10.2 L259.7 9.1 L258.5 7.6 L266.1 7.8 L268.3 8.1 L272.6 7 L266.4 6.7 L256.7 6.9 L251.8 6 L249.4 4.8 L246.2 4 L245.6 3.1 L249.7 2.5 L253 2.5 L258.4 2 L262.5 1 L265.9 1.1 L268.9 1.9 L271.1 0.4 L274.7 -0.1 L279.7 -0.4 L288.2 -0.5 L289.7 -0.2 L297.7 -0.6 L303.7 -0.5 L309.7 -0.3 ZM424.7 -1.4 L442.1 0.8 L437 1.8 L426.3 2 L411.4 2.2 L412.8 2.7 L422.6 2.4 L431 3.4 L436.4 2.5 L438.7 3.5 L435.6 5.1 L442.7 4.1 L456.2 3 L464.5 3.6 L466.1 4.7 L454.8 6.7 L453.2 7.4 L444.3 7.8 L450.7 8 L447.5 10 L445.3 11.8 L445.4 14.9 L448.7 16.7 L444.3 16.8 L439.8 17.7 L444.9 19.2 L445.6 21.5 L442.6 21.8 L446.2 24.2 L440 24.4 L443.2 25.5 L442.3 26.5 L438.4 26.9 L434.5 26.9 L438 28.8 L438.1 30 L432.6 28.9 L431.1 29.6 L434.9 30.3 L438.5 32 L439.6 34.3 L434.6 34.8 L432.5 33.7 L429 32.1 L430 34 L426.8 35.5 L434.1 35.6 L437.9 35.8 L430.5 38.2 L422.9 40.4 L414.8 41.3 L411.7 41.3 L408.9 42.4 L405 45.3 L399 47.3 L397.1 47.4 L393.4 48.1 L389.4 48.7 L387 50.4 L387 52.4 L385.6 54.2 L381.1 56.4 L382.2 58.6 L380.9 60.9 L379.5 63.6 L375.6 63.8 L371.5 61.5 L365.9 61.5 L363.2 60 L361.4 57.3 L356.6 53.8 L355.2 52 L354.8 49.5 L350.9 46.9 L351.9 44.9 L350.1 43.9 L352.8 40.7 L357 39.6 L358.1 38.5 L358.7 36.3 L355.5 37.3 L354 37.7 L351.5 38.1 L348.1 37.2 L347.9 35.3 L349 33.8 L351.6 33.8 L357.2 34.5 L352.5 32.8 L350 31.8 L347.2 32.2 L344.9 31.5 L348 28.9 L346.3 27.9 L344.1 26 L340.8 23 L337.2 21.9 L337.3 20.8 L329.8 19.2 L323.9 19 L316.5 19.1 L309.7 19.3 L306.5 18.4 L301.7 16.6 L309 15.8 L314.5 15.6 L302.7 14.9 L296.4 13.8 L296.8 12.7 L307.3 11.4 L317.5 10 L318.5 9 L311 8 L313.5 6.9 L323.1 5 L327.1 4.7 L326 3.4 L332.5 2.7 L341.1 2.2 L349.6 2.2 L352.7 3.1 L360 1.6 L366.7 2.6 L370.6 2.8 L376.3 3.7 L369.7 2.2 L370.1 1 L379.4 -0.6 L389.2 -0.5 L392.7 -1.5 L402.5 -1.8 L424.7 -1.4 Z"/></svg>
